<?xml version="1.0" encoding="utf-8"?>
<!-- Generator: Adobe Illustrator 26.2.1, SVG Export Plug-In . SVG Version: 6.00 Build 0)  -->
<svg version="1.1" id="Camada_1" xmlns="http://www.w3.org/2000/svg" xmlns:xlink="http://www.w3.org/1999/xlink" x="0px" y="0px"
	 viewBox="0 0 262.8 65.9" style="enable-background:new 0 0 262.8 65.9;" xml:space="preserve">
<style type="text/css">
	.st0{fill:#014248;}
</style>
<path class="st0" d="M3,3.8h23.4v7.8H11.5v14.4h11.8v7.8H11.5v16.7h14.8v7.8H3V3.8z"/>
<path class="st0" d="M30.5,3.8h8.6l5.7,42.8l5.7-42.8h7.9l-8.3,54.5H38.8L30.5,3.8z"/>
<path class="st0" d="M72.2,45.3V16.7C72.2,8,76.6,3,85,3c8.4,0,12.8,5,12.8,13.7v4.7h-8.1v-5.2c0-3.9-1.7-5.4-4.4-5.4
	c-2.7,0-4.4,1.5-4.4,5.4V46c0,3.9,1.7,5.3,4.4,5.3c2.7,0,4.4-1.4,4.4-5.3V35.3h-4.3v-7.8h12.4v17.8C97.8,54.1,93.4,59,85,59
	C76.6,59,72.2,54.1,72.2,45.3z"/>
<circle class="st0" cx="62.6" cy="56.8" r="6.8"/>
<g>
	<g>
		<g>
			<g>
				<path class="st0" d="M149.8,58.7c-1.4,0-2.8-0.7-3.7-1.9l-6.7-8.9c-0.6-0.8-1.6-0.9-2.2-0.7c-0.7,0.2-1.4,0.8-1.4,1.9V53
					c0,3-2.4,5.4-5.4,5.4h-13.5c-3.8,0-6.9-3.1-6.9-6.9c0-3.8,3.1-6.9,6.9-6.9l9.7,0h0c1.1,0,2.1,0.4,2.9,1.2
					c0.8,0.8,1.2,1.8,1.2,2.9c0,1.1-0.4,2.1-1.2,2.9c-0.8,0.8-1.8,1.2-2.9,1.2c0,0,0,0,0,0l-11.2,0l0-2.8l11.2,0c0,0,0,0,0,0
					c0.4,0,0.7-0.1,0.9-0.4c0.2-0.2,0.4-0.6,0.4-0.9c0-0.4-0.1-0.7-0.4-0.9c-0.2-0.2-0.6-0.4-0.9-0.4h0l-9.7,0
					c-2.3,0-4.2,1.9-4.2,4.2c0,2.3,1.9,4.2,4.2,4.2h13.5c1.5,0,2.7-1.2,2.7-2.7v-3.9c0-2.1,1.3-3.8,3.2-4.5c2-0.7,4,0,5.3,1.6
					l6.7,8.9c0.6,0.8,1.6,0.9,2.2,0.7c0.7-0.2,1.4-0.8,1.4-1.9v-5.6c0-2.1,1.7-3.8,3.8-3.8h17.1c2.7,0,5,2.2,5,5v3.9
					c0,2.7-2.2,5-5,5h-11.5c-2.3,0-4.2-1.9-4.2-4.2s1.9-4.2,4.2-4.2h11v2.8h-11c-0.8,0-1.5,0.7-1.5,1.5c0,0.8,0.7,1.5,1.5,1.5h11.5
					c1.2,0,2.2-1,2.2-2.2v-3.9c0-1.2-1-2.2-2.2-2.2h-17.1c-0.6,0-1,0.5-1,1v5.6c0,2.1-1.3,3.8-3.2,4.5
					C150.8,58.6,150.3,58.7,149.8,58.7z"/>
			</g>
			<g>
				<path class="st0" d="M183.1,58.4h-2.8v-8.8c0-2.8,2.3-5,5-5h11.4c2.2,0,4.1,1.8,4.1,4.1c0,1.1-0.4,2.1-1.2,2.9
					c-0.8,0.8-1.8,1.2-2.9,1.2c0,0,0,0,0,0l-11.1,0l0-2.8l11.1,0h0c0.4,0,0.7-0.1,0.9-0.4c0.2-0.2,0.4-0.6,0.4-0.9
					c0-0.7-0.6-1.3-1.3-1.3h-11.4c-1.3,0-2.3,1-2.3,2.3V58.4z"/>
			</g>
		</g>
	</g>
	<g>
		<g>
			<path class="st0" d="M109.9,28.8V17.6h2v11.3c0,0.6,0.1,1,0.2,1.4c0.2,0.4,0.4,0.7,0.6,1c0.3,0.3,0.6,0.5,1,0.6
				c0.4,0.2,0.8,0.3,1.2,0.3c0.4,0.1,0.8,0.1,1.2,0.1s0.8,0,1.2-0.1c0.4-0.1,0.8-0.2,1.2-0.3c0.4-0.2,0.7-0.4,0.9-0.6
				c0.3-0.3,0.5-0.6,0.6-1c0.2-0.4,0.2-0.9,0.2-1.4V17.6h2v11.3c0,0.8-0.1,1.5-0.3,2c-0.2,0.6-0.5,1.1-0.9,1.5
				c-0.4,0.4-0.8,0.7-1.3,0.9c-0.5,0.2-1.1,0.4-1.7,0.5s-1.3,0.1-2,0.1c-0.7,0-1.3,0-1.9-0.1s-1.2-0.3-1.7-0.5
				c-0.5-0.2-1-0.5-1.3-0.9c-0.4-0.4-0.7-0.9-0.9-1.5S109.9,29.6,109.9,28.8z"/>
			<path class="st0" d="M125.9,33.7V21.3h1.8v1.1c0.4-0.3,0.9-0.5,1.3-0.7c0.4-0.2,0.9-0.3,1.3-0.4c0.5-0.1,0.9-0.2,1.4-0.2
				c0.5,0,0.9,0.1,1.2,0.2c0.3,0.1,0.6,0.3,0.9,0.5c0.2,0.2,0.4,0.5,0.6,0.7c0.4-0.3,0.8-0.5,1.3-0.7c0.4-0.2,0.9-0.4,1.4-0.5
				c0.5-0.1,1.1-0.2,1.7-0.2c0.5,0,0.9,0.1,1.2,0.2c0.3,0.1,0.6,0.3,0.9,0.5c0.3,0.2,0.5,0.5,0.6,0.7c0.2,0.3,0.3,0.6,0.3,0.9
				c0.1,0.3,0.1,0.7,0.1,1v9.2H140V25c0-0.3,0-0.6-0.1-0.8c-0.1-0.3-0.2-0.5-0.3-0.7s-0.4-0.4-0.6-0.5c-0.3-0.1-0.6-0.2-1-0.2
				c-0.4,0-0.8,0.1-1.2,0.1c-0.4,0.1-0.7,0.2-1.1,0.4c-0.3,0.2-0.6,0.3-0.9,0.5c0.1,0.2,0.1,0.4,0.1,0.6c0,0.2,0,0.4,0,0.6v8.7h-2
				V25c0-0.3,0-0.5-0.1-0.8c-0.1-0.3-0.2-0.5-0.3-0.7c-0.1-0.2-0.4-0.4-0.6-0.5c-0.3-0.1-0.6-0.2-1-0.2c-0.4,0-0.7,0-1,0.1
				c-0.3,0.1-0.7,0.2-1,0.4c-0.3,0.1-0.7,0.3-1,0.5v9.9H125.9z"/>
			<path class="st0" d="M144.9,30.7c0-0.7,0.2-1.3,0.5-1.8c0.3-0.5,0.8-0.9,1.4-1.1c0.6-0.3,1.4-0.5,2.3-0.7c0.9-0.2,2-0.3,3.2-0.4
				V25c0-0.7-0.2-1.2-0.7-1.6c-0.5-0.4-1.2-0.6-2.1-0.6c-0.3,0-0.7,0-1,0c-0.4,0-0.8,0.1-1.2,0.2c-0.4,0.1-0.8,0.2-1.3,0.3l-0.3-1.5
				c0.7-0.2,1.3-0.4,2-0.5c0.7-0.1,1.3-0.2,1.9-0.2c1,0,1.9,0.1,2.6,0.4c0.7,0.3,1.2,0.7,1.5,1.3s0.5,1.3,0.5,2.1v6
				c0,0.5,0.1,0.9,0.2,1.1c0.1,0.2,0.3,0.3,0.6,0.3c0.1,0,0.2,0,0.3,0c0.1,0,0.2-0.1,0.3-0.1l0.2,1.4c-0.2,0.1-0.5,0.2-0.7,0.3
				s-0.5,0.1-0.8,0.1c-0.6,0-1-0.1-1.3-0.4c-0.3-0.3-0.5-0.7-0.6-1.3c-0.4,0.3-0.8,0.6-1.2,0.9c-0.4,0.3-0.9,0.5-1.5,0.6
				c-0.5,0.2-1.1,0.2-1.7,0.2c-0.5,0-0.9-0.1-1.3-0.2c-0.4-0.1-0.7-0.3-1-0.6c-0.3-0.3-0.5-0.6-0.6-1
				C145,31.7,144.9,31.2,144.9,30.7z M146.9,30.5c0,0.7,0.2,1.2,0.5,1.5c0.3,0.3,0.8,0.5,1.3,0.5c0.4,0,0.9-0.1,1.3-0.2
				c0.4-0.1,0.8-0.3,1.3-0.6c0.4-0.2,0.8-0.5,1.1-0.8v-3.1c-0.8,0.1-1.5,0.2-2.2,0.3c-0.7,0.1-1.3,0.3-1.7,0.4
				c-0.5,0.2-0.9,0.4-1.1,0.8C147,29.6,146.9,30.1,146.9,30.5z"/>
			<path class="st0" d="M166.7,18.8c-0.4,0-0.7-0.1-0.9-0.2c-0.2-0.2-0.3-0.4-0.3-0.8c0-0.4,0.1-0.7,0.3-0.8
				c0.2-0.2,0.5-0.2,0.9-0.2c0.4,0,0.8,0.1,0.9,0.2c0.2,0.2,0.3,0.4,0.3,0.8c0,0.4-0.1,0.7-0.3,0.8
				C167.4,18.8,167.1,18.8,166.7,18.8z M165.7,33.7V21.3h1.9v12.3H165.7z"/>
			<path class="st0" d="M171.6,33.7V21.3h1.8v1.1c0.5-0.3,1-0.5,1.5-0.7c0.5-0.2,0.9-0.3,1.4-0.4c0.5-0.1,1-0.1,1.5-0.1
				c0.8,0,1.4,0.1,1.9,0.4c0.5,0.3,0.9,0.6,1.2,1.1c0.3,0.5,0.4,1.1,0.4,1.8v9.2h-2V25c0-0.7-0.2-1.3-0.6-1.7
				c-0.4-0.4-0.9-0.6-1.7-0.6c-0.4,0-0.8,0-1.2,0.1c-0.4,0.1-0.8,0.2-1.1,0.4c-0.4,0.2-0.8,0.3-1.1,0.5v9.9H171.6z"/>
			<path class="st0" d="M186.1,18.8c-0.4,0-0.7-0.1-0.9-0.2c-0.2-0.2-0.3-0.4-0.3-0.8c0-0.4,0.1-0.7,0.3-0.8
				c0.2-0.2,0.5-0.2,0.9-0.2c0.4,0,0.8,0.1,0.9,0.2c0.2,0.2,0.3,0.4,0.3,0.8c0,0.4-0.1,0.7-0.3,0.8
				C186.8,18.8,186.5,18.8,186.1,18.8z M185.1,33.7V21.3h1.9v12.3H185.1z"/>
			<path class="st0" d="M190.4,27.7c0-1.5,0.2-2.7,0.7-3.7c0.5-1,1.1-1.7,2-2.2c0.9-0.5,1.9-0.7,3.2-0.7c0.4,0,0.8,0,1.3,0.1
				c0.4,0,0.9,0.1,1.3,0.1s0.8,0.1,1.1,0.3l-0.3,1.6c-0.4-0.1-0.7-0.2-1.1-0.2c-0.4-0.1-0.7-0.1-1.1-0.1c-0.4,0-0.7,0-1.1,0
				c-0.8,0-1.6,0.2-2.2,0.5c-0.6,0.3-1,0.9-1.3,1.6s-0.5,1.6-0.5,2.8c0,1,0.2,1.9,0.5,2.5c0.3,0.7,0.8,1.2,1.3,1.5
				c0.6,0.3,1.3,0.5,2.2,0.5c0.4,0,0.7,0,1.1,0c0.4,0,0.8-0.1,1.2-0.1c0.4-0.1,0.8-0.1,1.1-0.2l0.3,1.6c-0.6,0.2-1.2,0.3-2,0.4
				c-0.7,0.1-1.5,0.1-2.1,0.1c-1.8,0-3.2-0.5-4.2-1.5C190.8,31.4,190.4,29.8,190.4,27.7z"/>
			<path class="st0" d="M204,18.8c-0.4,0-0.7-0.1-0.9-0.2c-0.2-0.2-0.3-0.4-0.3-0.8c0-0.4,0.1-0.7,0.3-0.8c0.2-0.2,0.5-0.2,0.9-0.2
				c0.4,0,0.8,0.1,0.9,0.2c0.2,0.2,0.3,0.4,0.3,0.8c0,0.4-0.1,0.7-0.3,0.8C204.8,18.8,204.5,18.8,204,18.8z M203.1,33.7V21.3h1.9
				v12.3H203.1z"/>
			<path class="st0" d="M208.1,30.7c0-0.7,0.2-1.3,0.5-1.8c0.3-0.5,0.8-0.9,1.4-1.1c0.6-0.3,1.4-0.5,2.3-0.7c0.9-0.2,2-0.3,3.2-0.4
				V25c0-0.7-0.2-1.2-0.7-1.6c-0.5-0.4-1.2-0.6-2.1-0.6c-0.3,0-0.7,0-1,0c-0.4,0-0.8,0.1-1.2,0.2c-0.4,0.1-0.8,0.2-1.3,0.3l-0.3-1.5
				c0.7-0.2,1.3-0.4,2-0.5c0.7-0.1,1.3-0.2,1.9-0.2c1,0,1.9,0.1,2.6,0.4c0.7,0.3,1.2,0.7,1.5,1.3c0.3,0.6,0.5,1.3,0.5,2.1v6
				c0,0.5,0.1,0.9,0.2,1.1c0.1,0.2,0.3,0.3,0.6,0.3c0.1,0,0.2,0,0.3,0c0.1,0,0.2-0.1,0.3-0.1l0.2,1.4c-0.2,0.1-0.5,0.2-0.7,0.3
				c-0.3,0.1-0.5,0.1-0.8,0.1c-0.6,0-1-0.1-1.3-0.4c-0.3-0.3-0.5-0.7-0.6-1.3c-0.4,0.3-0.8,0.6-1.2,0.9c-0.4,0.3-0.9,0.5-1.5,0.6
				c-0.5,0.2-1.1,0.2-1.7,0.2c-0.5,0-0.9-0.1-1.3-0.2c-0.4-0.1-0.7-0.3-1-0.6c-0.3-0.3-0.5-0.6-0.6-1
				C208.2,31.7,208.1,31.2,208.1,30.7z M210.1,30.5c0,0.7,0.2,1.2,0.5,1.5c0.3,0.3,0.8,0.5,1.3,0.5c0.4,0,0.9-0.1,1.3-0.2
				c0.4-0.1,0.8-0.3,1.3-0.6c0.4-0.2,0.8-0.5,1.1-0.8v-3.1c-0.8,0.1-1.5,0.2-2.2,0.3c-0.7,0.1-1.3,0.3-1.7,0.4
				c-0.5,0.2-0.9,0.4-1.1,0.8C210.2,29.6,210.1,30.1,210.1,30.5z"/>
			<path class="st0" d="M225.6,33.9c-0.7,0-1.4-0.1-1.9-0.4c-0.5-0.3-0.9-0.7-1.1-1.3c-0.2-0.6-0.4-1.3-0.4-2.1v-7.3h-2.1v-1.3
				l2.1-0.2l0.3-2.9h1.7v2.9h4.1v1.4h-4.1v7.1c0,0.8,0.2,1.4,0.5,1.8c0.3,0.4,0.8,0.6,1.6,0.6c0.4,0,0.7,0,1.1-0.1
				c0.4-0.1,0.7-0.2,1.1-0.3l0.3,1.5c-0.6,0.2-1.1,0.3-1.6,0.4C226.5,33.9,226,33.9,225.6,33.9z"/>
			<path class="st0" d="M232.3,18.8c-0.4,0-0.7-0.1-0.9-0.2c-0.2-0.2-0.3-0.4-0.3-0.8c0-0.4,0.1-0.7,0.3-0.8
				c0.2-0.2,0.5-0.2,0.9-0.2c0.4,0,0.8,0.1,0.9,0.2c0.2,0.2,0.3,0.4,0.3,0.8c0,0.4-0.1,0.7-0.3,0.8C233,18.8,232.7,18.8,232.3,18.8z
				 M231.3,33.7V21.3h1.9v12.3H231.3z"/>
			<path class="st0" d="M240.5,33.7L236,21.4l2-0.2l3.7,10.5l3.5-10.5l2,0.2l-4.5,12.3H240.5z"/>
			<path class="st0" d="M248.6,30.7c0-0.7,0.2-1.3,0.5-1.8c0.3-0.5,0.8-0.9,1.4-1.1c0.6-0.3,1.4-0.5,2.3-0.7c0.9-0.2,2-0.3,3.2-0.4
				V25c0-0.7-0.2-1.2-0.7-1.6c-0.5-0.4-1.2-0.6-2.1-0.6c-0.3,0-0.7,0-1,0c-0.4,0-0.8,0.1-1.2,0.2c-0.4,0.1-0.8,0.2-1.3,0.3l-0.3-1.5
				c0.7-0.2,1.3-0.4,2-0.5c0.7-0.1,1.3-0.2,1.9-0.2c1,0,1.9,0.1,2.6,0.4c0.7,0.3,1.2,0.7,1.5,1.3c0.3,0.6,0.5,1.3,0.5,2.1v6
				c0,0.5,0.1,0.9,0.2,1.1c0.1,0.2,0.3,0.3,0.6,0.3c0.1,0,0.2,0,0.3,0c0.1,0,0.2-0.1,0.3-0.1l0.2,1.4c-0.2,0.1-0.5,0.2-0.7,0.3
				c-0.3,0.1-0.5,0.1-0.8,0.1c-0.6,0-1-0.1-1.3-0.4c-0.3-0.3-0.5-0.7-0.6-1.3c-0.4,0.3-0.8,0.6-1.2,0.9c-0.4,0.3-0.9,0.5-1.5,0.6
				c-0.5,0.2-1.1,0.2-1.7,0.2c-0.5,0-0.9-0.1-1.3-0.2c-0.4-0.1-0.7-0.3-1-0.6c-0.3-0.3-0.5-0.6-0.6-1
				C248.7,31.7,248.6,31.2,248.6,30.7z M250.6,30.5c0,0.7,0.2,1.2,0.5,1.5c0.3,0.3,0.8,0.5,1.3,0.5c0.4,0,0.9-0.1,1.3-0.2
				c0.4-0.1,0.8-0.3,1.3-0.6c0.4-0.2,0.8-0.5,1.1-0.8v-3.1c-0.8,0.1-1.5,0.2-2.2,0.3c-0.7,0.1-1.3,0.3-1.7,0.4
				c-0.5,0.2-0.9,0.4-1.1,0.8C250.7,29.6,250.6,30.1,250.6,30.5z"/>
		</g>
	</g>
</g>
</svg>
