<svg width="825" height="570" viewBox="0 0 825 570" fill="none" xmlns="http://www.w3.org/2000/svg">
<path d="M135.773 17.9171L822.596 84.0507L778.699 539.942L606.993 523.409L521.14 515.142L431.914 536.689L349.434 498.609L263.581 490.342L91.8754 473.809L135.773 17.9171Z" fill="#FFC164"/>
<path d="M173.332 3.45044L327.121 18.2586L404.015 25.6627L479.166 45.959L557.804 40.4709L634.698 47.8749L788.487 62.6831L746.732 496.321L592.944 481.513L516.049 474.109L436.515 488.91L362.261 459.301L285.366 451.897L131.578 437.089L173.332 3.45044Z" fill="url(#paint0_linear_102_53)"/>
<path d="M474.782 44.5323L479.403 45.9663L484.736 45.4908L441.611 488.145L436.515 488.91L431.829 487.203L474.782 44.5323Z" fill="url(#paint1_linear_102_53)"/>
<rect x="561.715" y="278.944" width="168" height="103" transform="rotate(5.5 561.715 278.944)" fill="url(#paint2_linear_102_53)"/>
<rect x="566.987" y="224.197" width="168" height="16" transform="rotate(5.5 566.987 224.197)" fill="#BDBDDA"/>
<rect x="209.64" y="189.788" width="168" height="16" transform="rotate(5.5 209.64 189.788)" fill="#BDBDDA"/>
<rect x="204.272" y="245.53" width="168" height="16" transform="rotate(5.5 204.272 245.53)" fill="url(#paint3_linear_102_53)"/>
<rect x="572.354" y="168.455" width="168" height="16" transform="rotate(5.5 572.354 168.455)" fill="#BDBDDA"/>
<rect x="215.007" y="134.046" width="168" height="16" transform="rotate(5.5 215.007 134.046)" fill="#BDBDDA"/>
<rect x="577.722" y="112.712" width="168" height="16" transform="rotate(5.5 577.722 112.712)" fill="#BDBDDA"/>
<rect x="220.374" y="78.3038" width="168" height="16" transform="rotate(5.5 220.374 78.3038)" fill="#BDBDDA"/>
<path d="M219.12 7.85934L291.784 14.8561L259.197 353.291L218.047 378.965L186.533 346.294L219.12 7.85934Z" fill="url(#paint4_linear_102_53)"/>
<path d="M22.2863 35.9829L711.629 66.0802L691.652 523.644L519.316 516.12L433.148 512.358L345.172 538.545L260.812 504.833L174.644 501.071L2.30858 493.547L22.2863 35.9829Z" fill="#FF8550"/>
<path d="M59.0371 19.5703L213.39 26.3095L290.567 29.6791L366.676 46.0145L444.919 36.4183L522.096 39.7879L676.449 46.5271L657.446 481.756L503.093 475.017L425.917 471.647L347.266 490.591L271.564 464.908L194.388 461.539L40.0346 454.799L59.0371 19.5703Z" fill="url(#paint5_linear_102_53)"/>
<path d="M362.224 44.8192L366.914 46.0094L372.215 45.2554L352.316 489.56L347.266 490.591L342.498 489.131L362.224 44.8192Z" fill="url(#paint6_linear_102_53)"/>
<rect x="461.306" y="274.36" width="168" height="103" transform="rotate(2.5 461.306 274.36)" fill="url(#paint7_linear_102_53)"/>
<rect x="463.705" y="219.412" width="168" height="16" transform="rotate(2.5 463.705 219.412)" fill="#BDBDDA"/>
<rect x="105.047" y="203.753" width="168" height="16" transform="rotate(2.5 105.047 203.753)" fill="#BDBDDA"/>
<rect x="102.604" y="259.699" width="168" height="16" transform="rotate(2.5 102.604 259.699)" fill="url(#paint8_linear_102_53)"/>
<rect x="466.148" y="163.465" width="168" height="16" transform="rotate(2.5 466.148 163.465)" fill="#BDBDDA"/>
<rect x="107.49" y="147.806" width="168" height="16" transform="rotate(2.5 107.49 147.806)" fill="#BDBDDA"/>
<rect x="468.591" y="107.518" width="168" height="16" transform="rotate(2.5 468.591 107.518)" fill="#BDBDDA"/>
<rect x="109.932" y="91.8591" width="168" height="16" transform="rotate(2.5 109.932 91.8591)" fill="#BDBDDA"/>
<path d="M104.993 21.5768L177.924 24.761L163.093 364.437L123.343 392.23L90.1628 361.253L104.993 21.5768Z" fill="url(#paint9_linear_102_53)"/>
<path d="M0 36H690V494H517.5H431.25L344.5 524L258.75 494H172.5H0V36Z" fill="url(#paint10_linear_102_53)"/>
<path d="M36 18H190.5H267.75L344.5 31L422.25 18H499.5H654V453.644H499.5H422.25L344.5 476L267.75 453.644H190.5H36V18Z" fill="url(#paint11_linear_102_53)"/>
<path d="M340 30L344.737 30.9845L350 30L349.5 474.75L344.5 476L339.673 474.75L340 30Z" fill="url(#paint12_linear_102_53)"/>
<rect x="449" y="255" width="168" height="103" fill="url(#paint13_linear_102_53)"/>
<rect x="449" y="200" width="168" height="16" fill="#BDBDDA"/>
<rect x="90" y="200" width="168" height="16" fill="#BDBDDA"/>
<rect x="90" y="256" width="168" height="16" fill="url(#paint14_linear_102_53)"/>
<rect x="449" y="144" width="168" height="16" fill="#BDBDDA"/>
<rect x="90" y="144" width="168" height="16" fill="#BDBDDA"/>
<rect x="449" y="88" width="168" height="16" fill="#BDBDDA"/>
<rect x="90" y="88" width="168" height="16" fill="#BDBDDA"/>
<path d="M82 18H155V358L116.5 387.5L82 358V18Z" fill="url(#paint15_linear_102_53)"/>
<defs>
<linearGradient id="paint0_linear_102_53" x1="480.91" y1="33.0668" x2="437.012" y2="488.958" gradientUnits="userSpaceOnUse">
<stop stop-color="#EBEBEB"/>
<stop offset="1" stop-color="#E7E7E7" stop-opacity="0.85"/>
</linearGradient>
<linearGradient id="paint1_linear_102_53" x1="479.759" y1="45.0115" x2="437.012" y2="488.958" gradientUnits="userSpaceOnUse">
<stop stop-color="#0F5174"/>
<stop offset="1" stop-color="#0F5174" stop-opacity="0.9"/>
</linearGradient>
<linearGradient id="paint2_linear_102_53" x1="645.715" y1="278.944" x2="645.715" y2="381.944" gradientUnits="userSpaceOnUse">
<stop stop-color="#BDBDDA"/>
<stop offset="1" stop-color="#A5A5C4" stop-opacity="0.84"/>
</linearGradient>
<linearGradient id="paint3_linear_102_53" x1="288.272" y1="245.53" x2="288.272" y2="261.53" gradientUnits="userSpaceOnUse">
<stop stop-color="#BDBDDA"/>
<stop offset="1" stop-color="#A5A5C3" stop-opacity="0.76"/>
</linearGradient>
<linearGradient id="paint4_linear_102_53" x1="255.452" y1="11.3577" x2="220.037" y2="379.157" gradientUnits="userSpaceOnUse">
<stop stop-color="#E54B4B"/>
<stop offset="1" stop-color="#AE3939"/>
</linearGradient>
<linearGradient id="paint5_linear_102_53" x1="367.743" y1="33.0487" x2="347.765" y2="490.613" gradientUnits="userSpaceOnUse">
<stop stop-color="#EBEBEB"/>
<stop offset="1" stop-color="#E7E7E7" stop-opacity="0.85"/>
</linearGradient>
<linearGradient id="paint6_linear_102_53" x1="367.22" y1="45.0373" x2="347.765" y2="490.613" gradientUnits="userSpaceOnUse">
<stop stop-color="#0F5174"/>
<stop offset="1" stop-color="#0F5174" stop-opacity="0.9"/>
</linearGradient>
<linearGradient id="paint7_linear_102_53" x1="545.306" y1="274.36" x2="545.306" y2="377.36" gradientUnits="userSpaceOnUse">
<stop stop-color="#BDBDDA"/>
<stop offset="1" stop-color="#A5A5C4" stop-opacity="0.84"/>
</linearGradient>
<linearGradient id="paint8_linear_102_53" x1="186.604" y1="259.699" x2="186.604" y2="275.699" gradientUnits="userSpaceOnUse">
<stop stop-color="#BDBDDA"/>
<stop offset="1" stop-color="#A5A5C3" stop-opacity="0.76"/>
</linearGradient>
<linearGradient id="paint9_linear_102_53" x1="141.459" y1="23.1689" x2="125.341" y2="392.317" gradientUnits="userSpaceOnUse">
<stop stop-color="#E54B4B"/>
<stop offset="1" stop-color="#AE3939"/>
</linearGradient>
<linearGradient id="paint10_linear_102_53" x1="345" y1="36" x2="345" y2="524" gradientUnits="userSpaceOnUse">
<stop stop-color="#195F85"/>
<stop offset="1" stop-color="#28739A"/>
</linearGradient>
<linearGradient id="paint11_linear_102_53" x1="345" y1="18" x2="345" y2="476" gradientUnits="userSpaceOnUse">
<stop stop-color="#EBEBEB"/>
<stop offset="1" stop-color="#E7E7E7" stop-opacity="0.85"/>
</linearGradient>
<linearGradient id="paint12_linear_102_53" x1="345" y1="30" x2="345" y2="476" gradientUnits="userSpaceOnUse">
<stop stop-color="#0F5174"/>
<stop offset="1" stop-color="#0F5174" stop-opacity="0.9"/>
</linearGradient>
<linearGradient id="paint13_linear_102_53" x1="533" y1="255" x2="533" y2="358" gradientUnits="userSpaceOnUse">
<stop stop-color="#BDBDDA"/>
<stop offset="1" stop-color="#A5A5C4" stop-opacity="0.84"/>
</linearGradient>
<linearGradient id="paint14_linear_102_53" x1="174" y1="256" x2="174" y2="272" gradientUnits="userSpaceOnUse">
<stop stop-color="#BDBDDA"/>
<stop offset="1" stop-color="#A5A5C3" stop-opacity="0.76"/>
</linearGradient>
<linearGradient id="paint15_linear_102_53" x1="118.5" y1="18" x2="118.5" y2="387.5" gradientUnits="userSpaceOnUse">
<stop stop-color="#E54B4B"/>
<stop offset="1" stop-color="#AE3939"/>
</linearGradient>
</defs>
</svg>
